<svg xmlns="http://www.w3.org/2000/svg" viewBox="0 0 96 96" role="img" aria-labelledby="title">
  <title id="title">CloudNest</title>
  <defs>
    <linearGradient id="cloudNestGradient" x1="18" y1="14" x2="78" y2="82" gradientUnits="userSpaceOnUse">
      <stop stop-color="#7CC8FF"/>
      <stop offset="1" stop-color="#60B6A8"/>
    </linearGradient>
  </defs>
  <rect width="96" height="96" rx="24" fill="#F7F5F1"/>
  <path fill="url(#cloudNestGradient)" d="M31.7 63.8h35.5c8.3 0 15-6.4 15-14.3 0-7.4-5.9-13.5-13.3-14.2C65.9 24.8 56.2 18 45.5 20.1c-8.1 1.6-14.2 8-15.6 16-8.8.7-15.7 7.6-15.7 16 0 6.4 5 11.7 11.6 11.7h5.9Z"/>
  <path fill="#FFFDF9" d="M31 49c0-2.8 2.2-5 5-5h9.8c1.2 0 2.4.5 3.2 1.4l2 2.1c.8.9 2 1.4 3.2 1.4H65c2.8 0 5 2.2 5 5v13c0 2.8-2.2 5-5 5H36c-2.8 0-5-2.2-5-5V49Z"/>
  <path fill="#2F80ED" d="M47.3 64.8a3 3 0 0 1-4.2 0l-4.4-4.4a2.7 2.7 0 0 1 3.8-3.8l2.7 2.7 8.3-8.3a2.7 2.7 0 0 1 3.8 3.8l-10 10Z"/>
</svg>
